<?xml version="1.0" standalone="no"?>
<!DOCTYPE svg PUBLIC "-//W3C//DTD SVG 20010904//EN"
 "http://www.w3.org/TR/2001/REC-SVG-20010904/DTD/svg10.dtd">
<svg version="1.0" xmlns="http://www.w3.org/2000/svg"
 width="384.000000pt" height="384.000000pt" viewBox="0 0 384.000000 384.000000"
 preserveAspectRatio="xMidYMid meet">
<metadata>
Created by potrace 1.11, written by Peter Selinger 2001-2013
</metadata>
<g transform="translate(0.000000,384.000000) scale(0.100000,-0.100000)"
fill="#000000" stroke="none">
<path d="M651 2493 c-22 -13 -43 -32 -46 -43 -4 -11 -11 -20 -16 -20 -5 0 -8
-3 -8 -7 1 -5 0 -10 -1 -13 -7 -15 -5 -98 2 -94 4 3 8 -3 8 -14 0 -22 43 -68
71 -77 11 -4 17 -10 15 -14 -8 -12 105 -3 120 10 8 6 14 8 14 5 0 -16 61 57
64 77 3 12 5 23 7 25 9 12 2 75 -13 105 -38 77 -141 106 -217 60z m127 -62 c7
0 11 -5 8 -10 -3 -5 0 -11 7 -14 20 -7 19 -69 -1 -95 -11 -14 -31 -24 -55 -26
-73 -7 -113 78 -60 130 20 20 29 21 101 15z"/>
<path d="M1105 2302 c-7 -7 -12 -8 -39 -11 -23 -2 -87 -67 -89 -90 -1 -11 -4
-21 -8 -21 -11 0 0 -79 15 -108 47 -91 184 -107 252 -29 24 28 38 57 35 76 -1
8 2 10 9 6 9 -5 8 0 -1 16 -7 13 -12 25 -11 27 1 1 2 10 2 20 0 20 -69 106
-78 98 -3 -3 -11 -1 -19 6 -7 6 -16 8 -20 5 -3 -4 -13 -2 -23 3 -10 5 -21 6
-25 2z m45 -85 c0 -6 3 -7 7 -4 11 12 38 -37 39 -73 1 -25 -5 -39 -20 -50 -12
-8 -24 -14 -28 -12 -5 1 -8 -2 -8 -7 0 -7 -17 -8 -37 -2 -2 1 -6 2 -10 3 -23
6 -46 42 -48 73 -2 27 3 40 21 54 13 10 22 20 19 22 -2 2 12 5 31 5 19 0 34
-4 34 -9z"/>
<path d="M320 2282 c0 -4 -10 -9 -22 -9 -13 -1 -28 -10 -35 -19 -7 -10 -13
-15 -13 -11 0 4 -8 -1 -18 -10 -11 -10 -17 -21 -15 -25 2 -3 -3 -12 -10 -20
-16 -16 -15 -83 2 -123 15 -36 49 -70 82 -81 35 -11 98 -13 105 -3 3 5 10 7
15 4 5 -4 9 -1 9 6 0 7 3 9 7 6 5 -6 25 13 65 61 15 19 13 118 -2 137 -7 8
-10 15 -7 15 4 0 -4 10 -16 23 -12 13 -25 22 -29 20 -5 -2 -8 1 -8 6 0 6 -8
11 -18 11 -10 0 -23 5 -29 11 -8 8 -13 8 -17 0 -5 -8 -13 -8 -27 -1 -10 6 -19
7 -19 2z m72 -88 c16 -8 26 -19 23 -24 -4 -6 -2 -10 4 -10 16 0 5 -67 -15 -87
-28 -28 -78 -28 -108 1 -34 30 -34 75 -2 107 29 29 59 33 98 13z"/>
<path d="M788 2123 c-20 -5 -42 -60 -27 -68 5 -4 7 -10 5 -14 -3 -4 8 -12 24
-18 25 -9 33 -8 54 11 29 24 29 48 -2 76 -22 20 -24 21 -54 13z"/>
<path d="M1525 2121 c-3 -2 -15 -6 -26 -8 -67 -10 -103 -82 -73 -144 12 -25
71 -61 104 -64 19 -2 58 -14 93 -28 25 -11 31 -20 28 -39 0 -5 4 -8 9 -8 19 0
-10 -40 -42 -60 -23 -14 -36 -16 -50 -9 -13 7 -18 6 -18 -2 0 -7 -4 -8 -12 -2
-7 5 -26 10 -42 11 -16 1 -38 10 -49 20 -15 12 -21 14 -24 4 -3 -6 -9 -10 -14
-7 -5 4 -6 -1 -3 -10 10 -26 94 -60 139 -57 117 8 150 32 161 114 6 43 -39 79
-132 107 -98 29 -119 47 -109 90 7 32 28 47 83 57 17 3 22 1 16 -8 -5 -10 -4
-10 6 -1 9 9 22 8 51 -2 41 -15 72 -10 66 9 -2 6 -17 15 -33 21 -16 5 -31 12
-34 15 -7 7 -89 8 -95 1z"/>
<path d="M2498 2128 c0 -2 -2 -94 -3 -206 -1 -200 -1 -203 19 -200 20 3 21 9
22 145 0 79 3 145 6 149 4 3 18 -16 32 -43 14 -26 37 -66 51 -88 14 -22 30
-51 37 -65 7 -14 19 -31 26 -39 17 -18 33 -1 94 104 26 44 58 95 71 112 l24
33 -1 -30 c-1 -16 -3 -30 -6 -30 -10 0 -5 -55 5 -62 7 -5 7 -8 0 -8 -10 0 -11
-81 -1 -106 3 -8 1 -14 -5 -14 -6 0 -6 -7 1 -20 8 -15 8 -20 -2 -20 -6 0 -3
-6 8 -14 12 -10 22 -11 29 -5 13 13 15 368 2 393 -7 15 -11 16 -18 5 -5 -8 -9
-10 -9 -5 0 6 -13 -11 -30 -37 -16 -26 -30 -52 -30 -57 0 -6 -5 -10 -11 -10
-5 0 -7 -5 -4 -10 3 -6 -1 -13 -9 -16 -9 -3 -14 -10 -11 -14 3 -4 -2 -13 -10
-20 -8 -7 -12 -16 -9 -21 3 -5 1 -9 -4 -9 -9 0 -37 -50 -34 -61 1 -4 -8 -9
-18 -12 -11 -3 -20 -2 -20 3 0 4 -11 24 -25 44 -13 20 -22 36 -19 36 2 0 0 6
-6 13 -6 6 -31 47 -56 90 -38 64 -78 109 -86 95z"/>
<path d="M622 2105 c-39 -28 -12 -99 37 -93 42 5 65 51 43 85 -13 20 -56 25
-80 8z"/>
<path d="M3153 2033 c5 -8 -2 -12 -20 -11 -16 0 -41 -7 -58 -16 -16 -9 -26
-16 -21 -16 4 0 -1 -8 -13 -17 -12 -10 -23 -28 -24 -40 -1 -13 -5 -23 -10 -23
-4 0 -5 -4 -2 -10 3 -5 1 -10 -6 -10 -9 0 -9 -4 1 -15 6 -8 9 -18 6 -24 -8
-12 14 -61 27 -61 6 0 7 -3 4 -6 -9 -10 65 -63 79 -57 7 2 15 0 19 -6 4 -8 12
-8 27 0 14 8 18 8 14 0 -11 -17 71 16 93 38 20 20 20 20 0 26 -11 4 -30 -1
-47 -13 -21 -16 -32 -18 -46 -10 -14 8 -17 8 -11 -2 6 -9 3 -9 -13 -1 -12 6
-25 10 -29 9 -4 -2 -19 5 -33 15 -13 9 -20 17 -15 17 6 0 3 5 -5 10 -8 5 -16
18 -16 29 -1 19 5 20 105 20 58 0 113 0 122 0 11 1 18 12 21 30 2 17 1 28 -4
25 -4 -3 -8 3 -8 14 0 26 -54 80 -87 88 -16 4 -34 12 -42 18 -11 8 -13 8 -8
-1z m21 -54 c-3 -5 2 -6 11 -2 11 4 25 -3 40 -19 26 -28 45 -75 25 -63 -7 4
-16 1 -21 -6 -6 -10 -9 -10 -9 -2 0 7 -7 10 -17 6 -12 -5 -14 -3 -9 8 4 8 1 6
-7 -4 -10 -12 -17 -15 -22 -7 -5 8 -11 7 -23 -2 -14 -11 -15 -10 -9 7 7 20 7
20 -8 1 -8 -11 -15 -15 -15 -10 0 6 -14 9 -31 6 -25 -4 -30 -1 -27 14 2 11 8
25 15 31 6 7 13 17 15 23 2 6 11 12 20 14 10 1 20 5 23 8 9 9 55 6 49 -3z"/>
<path d="M1895 2025 c-5 -2 -22 -6 -38 -9 -33 -8 -82 -57 -96 -97 -7 -22 -7
-28 1 -23 7 4 8 3 4 -4 -12 -20 -15 -52 -5 -52 6 0 8 -4 5 -9 -3 -5 8 -27 24
-50 26 -35 44 -46 93 -57 4 -1 8 -2 10 -4 8 -6 37 -7 37 0 0 4 10 7 23 6 27
-2 77 30 77 50 0 15 -36 20 -42 5 -1 -6 -15 -12 -30 -15 -15 -2 -32 -7 -38
-11 -5 -3 -10 -2 -10 4 0 5 -9 8 -20 6 -25 -5 -80 46 -80 74 0 19 8 21 123 23
l122 3 0 30 c0 17 -7 39 -15 49 -27 36 -68 73 -82 74 -7 0 -22 2 -33 5 -11 2
-24 3 -30 2z m55 -49 c32 -11 48 -28 56 -60 4 -17 2 -26 -6 -26 -6 0 -8 6 -5
13 4 6 0 5 -7 -5 -10 -12 -19 -13 -31 -7 -12 7 -17 6 -17 -3 0 -8 -3 -9 -8 -3
-10 14 -55 15 -64 1 -5 -8 -8 -8 -8 0 0 6 -7 11 -15 11 -8 0 -15 -5 -15 -10 0
-5 -6 -4 -14 3 -16 13 -11 36 13 61 35 35 68 42 121 25z"/>
<path d="M2218 2019 c-16 -4 -28 -6 -28 -4 0 2 -13 -9 -28 -23 -35 -33 -55
-69 -48 -87 2 -7 -2 -16 -11 -19 -11 -4 -12 -10 -5 -19 5 -6 12 -23 14 -37 7
-51 78 -109 131 -106 15 1 27 -2 27 -7 0 -4 5 -5 12 -1 7 4 22 9 34 10 12 1
31 10 42 20 17 14 19 21 10 37 -9 18 -11 19 -20 3 -5 -9 -13 -14 -19 -11 -5 4
-9 2 -9 -4 0 -5 -8 -8 -17 -6 -10 1 -26 -2 -35 -7 -10 -5 -18 -5 -18 0 0 4
-10 8 -22 9 -11 1 -24 7 -28 13 -4 7 -10 10 -14 8 -7 -3 -36 48 -36 64 0 5 51
8 119 7 66 -1 123 1 128 4 12 8 4 67 -9 67 -5 0 -6 5 -3 11 7 11 -39 59 -56
59 -6 0 -8 4 -4 9 3 6 -3 10 -12 10 -10 0 -29 1 -43 4 -14 2 -37 0 -52 -4z
m46 -42 c-5 -8 -2 -7 9 2 13 10 17 10 17 1 0 -7 7 -10 15 -6 8 3 15 2 15 -2 0
-5 8 -17 18 -28 26 -27 24 -56 -2 -52 -12 1 -27 -2 -35 -6 -11 -7 -13 -5 -8
10 7 18 7 18 -8 0 -8 -11 -15 -15 -15 -9 0 6 -9 9 -22 5 -16 -4 -19 -2 -14 9
4 8 1 6 -6 -3 -9 -10 -19 -14 -28 -8 -7 4 -19 6 -27 3 -7 -3 -16 2 -19 12 -9
22 54 80 90 83 19 1 25 -2 20 -11z"/>
<path d="M3467 2018 c-41 -9 -91 -41 -80 -52 3 -3 1 -6 -5 -6 -14 0 -26 -35
-28 -85 -2 -52 37 -125 65 -125 6 0 11 -3 11 -8 0 -4 16 -12 35 -18 24 -8 32
-8 28 0 -4 6 -1 6 8 -1 9 -7 20 -8 29 -3 8 5 17 7 21 4 12 -7 54 16 67 37 19
29 -8 34 -52 10 -21 -12 -36 -16 -36 -10 0 8 -4 8 -13 0 -8 -6 -17 -7 -21 -3
-8 7 -13 8 -42 11 -8 0 -12 6 -9 11 3 6 0 10 -8 10 -16 0 -40 47 -31 61 3 6
40 10 82 9 169 -3 163 -4 159 33 -4 46 -37 94 -75 113 -44 20 -60 22 -105 12z
m74 -37 c24 -4 76 -76 61 -85 -5 -3 -36 -4 -70 -2 -39 2 -62 -1 -63 -8 0 -8
-2 -8 -5 0 -3 6 -16 9 -29 6 -27 -5 -47 24 -26 38 7 4 11 11 9 15 -1 4 11 15
29 25 27 14 55 17 94 11z"/>
<path d="M866 1989 c3 -5 -2 -9 -11 -9 -9 0 -14 -4 -10 -9 3 -5 1 -12 -4 -15
-10 -6 -9 -20 4 -48 4 -10 10 -16 14 -14 4 3 13 1 21 -4 19 -11 49 6 59 33 10
27 -6 67 -28 68 -9 0 -24 2 -34 4 -9 2 -15 -1 -11 -6z"/>
<path d="M555 1977 c-42 -32 -15 -103 37 -95 47 6 62 54 28 88 -23 23 -39 25
-65 7z"/>
<path d="M809 1859 c-7 -4 -16 -6 -20 -3 -4 2 -12 -9 -17 -26 -12 -34 8 -68
45 -75 29 -5 62 35 56 67 -5 26 -45 49 -64 37z"/>
<path d="M1057 1846 c-53 -30 -80 -76 -80 -138 0 -32 5 -53 13 -58 8 -5 11
-12 8 -16 -10 -10 22 -39 67 -61 43 -21 116 -24 123 -5 2 7 9 12 16 12 7 0 24
12 38 28 46 49 56 116 25 174 -42 77 -136 106 -210 64z m136 -87 c23 -28 18
-75 -10 -103 -20 -20 -37 -24 -85 -17 -15 2 -48 46 -44 58 3 7 0 13 -7 13 -7
0 -8 3 -2 8 6 4 11 14 13 22 2 8 8 17 13 18 5 2 7 8 3 13 -3 5 4 9 15 9 12 0
21 4 21 9 0 16 64 -7 83 -30z"/>
<path d="M298 1848 c-16 -5 -28 -14 -28 -19 0 -5 -7 -9 -16 -9 -8 0 -13 -4
-10 -8 3 -5 -4 -16 -15 -25 -10 -9 -19 -26 -19 -36 0 -11 -4 -22 -9 -25 -9 -6
-3 -32 22 -97 13 -33 82 -83 108 -76 10 3 19 1 19 -3 0 -5 13 -5 29 0 16 4 31
6 34 4 2 -3 10 2 17 11 7 8 18 15 24 15 15 0 58 74 49 84 -3 3 -2 6 3 6 12 0
12 50 0 68 -4 7 -6 16 -2 19 3 3 0 11 -7 18 -7 7 -18 22 -26 33 -8 12 -18 19
-23 16 -4 -3 -8 1 -8 9 0 7 -6 14 -12 15 -58 8 -107 8 -130 0z m121 -94 c19
-20 22 -30 17 -59 -4 -19 -11 -35 -17 -35 -6 0 -8 -4 -5 -9 9 -13 -39 -27 -76
-22 -22 3 -51 30 -53 48 0 10 -4 24 -8 30 -5 7 1 21 12 32 11 11 17 22 14 25
-8 8 60 24 77 18 8 -3 26 -16 39 -28z"/>
<path d="M650 1849 c0 -5 -4 -8 -9 -5 -14 9 -31 -19 -26 -43 6 -32 24 -51 49
-51 47 0 73 44 46 80 -18 24 -60 38 -60 19z"/>
<path d="M703 1624 c-18 -7 -33 -10 -33 -8 0 7 -39 -35 -55 -60 -19 -28 -30
-126 -15 -126 6 0 10 -8 10 -18 0 -18 60 -84 60 -66 0 5 6 2 13 -7 15 -18 80
-22 122 -7 33 13 87 66 80 79 -3 4 0 9 6 11 17 6 18 68 2 108 -16 40 -51 80
-70 80 -7 0 -13 5 -13 11 0 5 -4 7 -10 4 -5 -3 -10 -3 -10 2 0 12 -49 10 -87
-3z m95 -85 c12 -9 19 -19 15 -22 -3 -4 -2 -7 4 -7 5 0 9 -15 8 -34 -1 -47
-47 -89 -82 -75 -12 4 -23 6 -23 2 0 -4 -11 4 -25 17 -14 13 -23 25 -20 28 2
3 0 13 -6 23 -7 13 -6 19 1 19 6 0 9 3 6 8 -6 10 14 36 37 49 26 14 58 11 85
-8z"/>
</g>
</svg>
